<?xml version="1.0" standalone="no"?>
<!DOCTYPE svg PUBLIC "-//W3C//DTD SVG 20010904//EN"
 "http://www.w3.org/TR/2001/REC-SVG-20010904/DTD/svg10.dtd">
<svg version="1.0" xmlns="http://www.w3.org/2000/svg"
 width="500.000000pt" height="500.000000pt" viewBox="0 0 500.000000 500.000000"
 preserveAspectRatio="xMidYMid meet">

<g transform="translate(0.000000,500.000000) scale(0.100000,-0.100000)"
fill="#000000" stroke="none">
<path d="M2450 4303 c-792 -61 -1474 -567 -1735 -1286 -72 -202 -104 -386
-107 -620 -1 -92 -6 -173 -11 -180 -5 -7 -6 -4 -2 10 3 12 1 24 -5 28 -6 3
-10 -3 -10 -17 0 -18 -2 -20 -10 -8 -6 10 -10 11 -10 3 0 -7 -9 -13 -20 -13
-11 0 -20 5 -20 10 0 6 5 10 11 10 5 0 7 5 4 10 -10 16 -33 11 -38 -7 -3 -14
-6 -12 -15 10 -7 15 -19 27 -30 27 -10 0 -23 5 -30 12 -17 17 -24 6 -29 -52
-3 -39 -1 -50 8 -44 8 4 9 3 5 -4 -15 -25 39 -255 101 -426 24 -67 108 -248
135 -291 7 -11 44 -66 81 -122 308 -462 792 -775 1357 -880 74 -13 148 -17
335 -17 216 0 254 3 376 26 245 47 508 151 722 286 53 34 103 66 110 72 6 5
40 32 73 59 87 71 237 214 286 275 31 39 20 30 -48 -36 -177 -173 -285 -252
-474 -351 -337 -176 -707 -254 -1083 -227 -479 34 -854 206 -1184 541 -116
118 -143 150 -223 269 -182 271 -284 586 -297 920 -10 259 24 489 102 707 78
215 186 390 374 607 232 268 567 478 925 581 503 145 1039 96 1474 -136 51
-27 98 -47 103 -43 5 3 8 2 7 -3 -2 -4 1 -9 6 -10 5 -1 12 -5 15 -10 14 -20
99 -72 106 -65 5 4 5 2 2 -4 -4 -7 -1 -14 7 -17 7 -3 53 -39 102 -80 142 -119
287 -307 389 -502 57 -109 63 -117 35 -45 -29 76 -119 244 -182 343 -105 164
-381 459 -411 440 -6 -3 -7 -1 -3 5 4 7 0 12 -10 12 -10 0 -14 3 -11 6 14 14
-40 42 -74 39 -18 -1 -43 1 -54 6 -13 6 -6 7 22 3 23 -2 44 0 48 6 4 6 -1 7
-11 3 -11 -4 -15 -3 -10 5 3 6 1 14 -5 18 -8 4 -9 3 -5 -4 5 -8 -2 -12 -21
-12 -40 0 -62 -16 -35 -24 11 -4 23 -13 26 -21 3 -8 12 -12 21 -9 8 4 15 1 15
-6 0 -9 -12 -11 -37 -8 -36 5 -36 5 -10 -5 15 -6 27 -14 27 -19 0 -4 -11 -3
-25 2 -40 15 -96 56 -88 64 4 4 0 4 -10 0 -9 -3 -32 1 -51 10 -272 129 -672
203 -976 179z"/>
<path d="M3565 4160 c3 -5 14 -10 23 -10 15 0 15 2 2 10 -20 13 -33 13 -25 0z"/>
<path d="M3538 4093 c7 -3 16 -2 19 1 4 3 -2 6 -13 5 -11 0 -14 -3 -6 -6z"/>
<path d="M1940 3797 c-238 -81 -377 -378 -315 -673 l18 -84 27 37 c16 21 26
41 24 45 -3 4 8 15 23 24 15 10 47 33 70 52 24 18 51 34 62 35 12 1 17 6 13
16 -3 9 -1 12 5 8 6 -4 16 -29 22 -55 5 -27 40 -145 77 -263 107 -345 108
-349 153 -634 9 -59 9 -58 4 20 -7 116 -28 235 -67 371 -18 65 -50 178 -70
249 -75 266 -91 391 -61 492 57 191 350 202 723 26 18 -9 36 -12 40 -8 10 10
-184 195 -254 242 -170 115 -347 151 -494 100z m-273 -709 c-3 -7 -5 -2 -5 12
0 14 2 19 5 13 2 -7 2 -19 0 -25z"/>
<path d="M3270 3660 c-30 -11 -93 -43 -140 -72 -299 -183 -533 -265 -782 -276
-70 -2 -125 -9 -122 -13 11 -19 169 -59 256 -65 124 -9 203 6 426 77 121 39
208 61 255 65 66 6 77 4 126 -23 94 -49 161 -175 206 -383 7 -36 14 -59 14
-51 1 8 9 3 22 -13 11 -14 29 -26 40 -26 11 0 22 -7 25 -15 4 -8 12 -15 20
-15 8 0 14 -8 14 -17 0 -14 2 -15 9 -5 6 11 10 8 14 -10 4 -12 24 -41 46 -63
22 -22 40 -48 41 -58 0 -21 24 -49 34 -40 10 10 7 -6 -5 -26 -9 -13 -9 -23 0
-37 10 -16 11 -15 6 11 -5 25 -4 27 4 8 7 -16 1 -45 -24 -120 -134 -396 -331
-741 -596 -1045 -37 -42 -70 -74 -74 -70 -4 4 -5 2 -3 -3 2 -6 -1 -10 -7 -10
-5 0 -9 4 -7 9 2 5 -4 4 -12 -4 -18 -14 -22 -25 -6 -15 16 10 12 -21 -5 -35
-12 -10 -16 -9 -21 5 -5 12 -14 15 -35 11 -17 -3 -29 -1 -31 6 -3 7 -7 5 -11
-6 -5 -11 -3 -15 5 -10 7 4 8 3 4 -4 -11 -19 -26 -14 -26 8 0 11 -7 20 -15 20
-8 0 -15 -5 -15 -11 0 -5 5 -7 10 -4 6 3 10 1 10 -5 0 -6 -10 -8 -22 -5 -19 4
-30 -6 -63 -52 -62 -88 -259 -349 -334 -443 l-36 -45 60 50 c33 28 73 62 90
76 539 467 733 690 948 1084 146 268 242 503 294 719 24 98 27 131 28 286 0
141 -4 189 -19 244 -55 203 -153 330 -310 402 -81 37 -207 43 -286 14z m527
-1032 c-3 -8 -6 -5 -6 6 -1 11 2 17 5 13 3 -3 4 -12 1 -19z m-773 -1329 c-3
-5 -10 -7 -15 -3 -5 3 -7 10 -3 15 3 5 10 7 15 3 5 -3 7 -10 3 -15z"/>
<path d="M383 2315 c-3 -9 -3 -18 -1 -21 3 -3 8 4 11 16 6 23 -1 27 -10 5z"/>
<path d="M2635 2297 c-86 -29 -151 -72 -237 -155 -48 -48 -88 -92 -88 -99 0
-7 -6 -16 -13 -20 -8 -4 -22 -21 -33 -37 l-18 -29 21 12 c12 6 25 16 28 21 4
6 11 8 16 5 5 -4 12 0 15 8 3 9 17 13 42 11 32 -2 35 -1 20 10 -10 7 -15 16
-11 19 3 4 12 -1 19 -11 9 -11 13 -13 14 -4 0 7 5 10 10 7 6 -4 5 -11 -3 -19
-7 -7 -37 -41 -67 -76 -30 -34 -60 -68 -65 -74 -90 -99 -80 -102 16 -5 126
128 187 177 248 197 82 28 172 5 225 -58 31 -38 35 -53 39 -150 2 -70 3 -72
11 -33 8 40 36 69 36 37 0 -8 4 -13 9 -10 10 7 37 -22 28 -30 -3 -4 4 -21 17
-38 30 -40 39 -66 23 -66 -8 0 -8 -3 2 -9 25 -16 -66 -179 -269 -486 -85 -128
-81 -129 12 -5 177 238 309 459 355 594 40 115 40 231 1 297 -35 60 -109 126
-186 167 -71 38 -155 49 -217 29z m-175 -251 c0 -3 -4 -8 -10 -11 -5 -3 -10
-1 -10 4 0 6 5 11 10 11 6 0 10 -2 10 -4z"/>
<path d="M2112 2130 c0 -19 2 -27 5 -17 2 9 2 25 0 35 -3 9 -5 1 -5 -18z"/>
<path d="M1960 1986 c0 -94 -41 -331 -76 -443 -18 -58 99 153 148 267 33 76
72 209 64 218 -3 3 -6 -2 -6 -12 0 -9 -4 -15 -8 -12 -4 2 -14 1 -22 -4 -9 -6
-20 -4 -30 4 -8 7 -27 16 -42 20 -27 6 -28 5 -28 -38z"/>
<path d="M1983 1597 c-25 -31 -26 -39 -5 -28 12 6 23 15 27 20 9 15 -12 22
-22 8z"/>
<path d="M2573 1083 c-18 -19 -24 -22 -20 -10 4 11 3 16 -4 12 -6 -4 -8 -14
-4 -22 4 -13 3 -14 -9 -4 -12 10 -16 8 -21 -11 -3 -13 -10 -32 -15 -43 -42
-99 -39 -146 5 -67 19 34 35 69 35 77 0 8 5 15 10 15 6 0 10 7 10 15 0 8 8 19
19 24 17 10 37 41 25 41 -3 0 -17 -12 -31 -27z"/>
</g>
</svg>
